<svg xmlns="http://www.w3.org/2000/svg" viewBox="0 0 200 220" fill="none">
  <!-- Leaf -->
  <path d="M120 30 C140 50, 150 90, 120 130 C110 110, 100 80, 120 30Z" fill="#2E7D32"/>
  <path d="M120 30 C100 50, 90 90, 120 130 C130 110, 140 80, 120 30Z" fill="#43A047"/>
  <path d="M120 30 L120 130" stroke="#1B5E20" stroke-width="2"/>
  <!-- Person figure -->
  <circle cx="95" cy="45" r="16" fill="#C2185B"/>
  <path d="M80 65 C70 85, 65 100, 75 130 Q80 140, 85 155 L95 155 L90 130 Q95 110, 100 90" fill="#C2185B"/>
  <path d="M100 90 Q110 100, 105 130 L100 155 L110 155 Q115 140, 115 130 C120 100, 110 80, 100 70Z" fill="#C2185B"/>
  <!-- Text: PROFE MACA -->
  <text x="100" y="180" text-anchor="middle" font-family="Arial Black, sans-serif" font-size="22" font-weight="900" fill="#1B5E20">PROFE MACA</text>
  <text x="100" y="198" text-anchor="middle" font-family="Arial, sans-serif" font-size="7" font-weight="600" fill="#C2185B" letter-spacing="0.5">ENTRENAMIENTO Y NUTRICION</text>
  <text x="100" y="210" text-anchor="middle" font-family="Arial, sans-serif" font-size="7" font-weight="600" fill="#C2185B" letter-spacing="0.5">PARA TRANSFORMAR TU VIDA</text>
</svg>
